<svg id="Слой_1" data-name="Слой 1" xmlns="http://www.w3.org/2000/svg" viewBox="0 0 27 28"><defs><style>.cls-1{fill:#fff;}</style></defs><path class="cls-1" d="M13.5.22A13.7,13.7,0,0,0,0,14.11,13.7,13.7,0,0,0,13.5,28,13.7,13.7,0,0,0,27,14.11,13.7,13.7,0,0,0,13.5.22Zm6.19,20a.83.83,0,0,1-1.16.29c-3.17-2-7.16-2.44-11.86-1.34a.83.83,0,0,1-1-.65.87.87,0,0,1,.63-1c5.14-1.2,9.55-.68,13.11,1.55A.88.88,0,0,1,19.69,20.25Zm1.65-3.78a1,1,0,0,1-1.44.36A17.28,17.28,0,0,0,6.44,15.21a1.05,1.05,0,0,1-1.31-.72,1.09,1.09,0,0,1,.7-1.35A19.24,19.24,0,0,1,21,15,1.1,1.1,0,0,1,21.34,16.47Zm.15-3.94C17.13,9.88,10,9.63,5.8,10.93a1.25,1.25,0,0,1-1.57-.87,1.3,1.3,0,0,1,.84-1.62C9.84,7,17.76,7.24,22.77,10.3a1.32,1.32,0,0,1,.45,1.78A1.24,1.24,0,0,1,21.49,12.53Z"/></svg>