<svg id="Слой_1" data-name="Слой 1" xmlns="http://www.w3.org/2000/svg" viewBox="0 0 92 27.78"><defs><style>.cls-1{fill:#fff}</style></defs><path class="cls-1" d="M13.8.22a13.89 13.89 0 1 0 13.79 13.89A13.85 13.85 0 0 0 13.8.22Zm6.32 20a.85.85 0 0 1-1.18.29c-3.24-2-7.32-2.44-12.12-1.34a.86.86 0 0 1-1-.65.87.87 0 0 1 .65-1c5.25-1.2 9.76-.68 13.4 1.55a.87.87 0 0 1 .25 1.18Zm1.69-3.78a1.07 1.07 0 0 1-1.48.36 18 18 0 0 0-13.75-1.59A1.08 1.08 0 0 1 6 13.14 20 20 0 0 1 21.46 15a1.09 1.09 0 0 1 .35 1.47Zm.19-3.91c-4.45-2.65-11.79-2.9-16-1.6a1.3 1.3 0 0 1-.75-2.49c4.87-1.49 13-1.2 18.09 1.86a1.3 1.3 0 0 1 .46 1.78 1.28 1.28 0 0 1-1.8.45Zm68.53 1.36A1.52 1.52 0 1 1 92 12.37a1.51 1.51 0 0 1-1.51 1.52Zm0-2.88a1.37 1.37 0 1 0 1.34 1.36A1.34 1.34 0 0 0 90.5 11Zm.33 1.51.43.6h-.39l-.38-.55h-.33v.55h-.3v-1.59h.7c.37 0 .61.19.61.51a.47.47 0 0 1-.37.48Zm-.25-.71h-.39v.5h.39c.19 0 .31-.1.31-.25s-.15-.25-.34-.25ZM30.93 6.5h4.44a8.64 8.64 0 0 1 4.41.86 3 3 0 0 1 1.37 2.75 3.44 3.44 0 0 1-.6 2.1 2.38 2.38 0 0 1-1.6 1v.1a3.14 3.14 0 0 1 2 1.13 3.69 3.69 0 0 1 .6 2.21 3.62 3.62 0 0 1-1.41 3 6.1 6.1 0 0 1-3.83 1.1h-5.38Zm3 5.65h1.76a3.14 3.14 0 0 0 1.78-.38 1.41 1.41 0 0 0 .56-1.26 1.26 1.26 0 0 0-.6-1.17A3.87 3.87 0 0 0 35.55 9H34Zm0 2.41v3.72h2a2.89 2.89 0 0 0 1.84-.48 1.77 1.77 0 0 0 .6-1.47c0-1.18-.85-1.77-2.54-1.77ZM49.07 21A5.63 5.63 0 0 1 45 19.52a5.51 5.51 0 0 1-1.48-4.12 6.05 6.05 0 0 1 1.37-4.25 4.88 4.88 0 0 1 3.79-1.5A4.83 4.83 0 0 1 52.24 11a5 5 0 0 1 1.28 3.65v1.44h-7a2.88 2.88 0 0 0 .76 2 2.61 2.61 0 0 0 2 .72 7.91 7.91 0 0 0 1.86-.21 9.47 9.47 0 0 0 1.84-.65v2.3a6.74 6.74 0 0 1-1.67.58 10.35 10.35 0 0 1-2.24.17Zm-.42-9.2a1.89 1.89 0 0 0-1.48.6 2.76 2.76 0 0 0-.62 1.71h4.18a2.48 2.48 0 0 0-.57-1.71 2 2 0 0 0-1.51-.63ZM60.55 18.6a6.36 6.36 0 0 0 1.87-.34v2.21a6.53 6.53 0 0 1-2.73.5 3.38 3.38 0 0 1-2.61-.9 4 4 0 0 1-.81-2.71V12.1h-1.43v-1.26l1.64-1 .86-2.3h1.91v2.32h3v2.24h-3v5.26a1.19 1.19 0 0 0 .35.94 1.44 1.44 0 0 0 .95.3ZM64.5 7c0-1 .54-1.46 1.62-1.46s1.62.49 1.62 1.46a1.43 1.43 0 0 1-.4 1.08 1.75 1.75 0 0 1-1.22.38C65 8.5 64.5 8 64.5 7Zm3.11 13.74h-3V9.86h3ZM76.77 12.1h-2.58v8.68h-3V12.1h-1.62v-1.44l1.64-.8v-.8a3.61 3.61 0 0 1 .92-2.73 4.22 4.22 0 0 1 2.94-.85 7.76 7.76 0 0 1 2.74.45l-.76 2.19a5.5 5.5 0 0 0-1.66-.28 1.08 1.08 0 0 0-.92.37 1.57 1.57 0 0 0-.28 1v.68h2.58Z" transform="translate(0 -.22)"/><path class="cls-1" d="M76.91 9.86h3.26L82.24 16a9.31 9.31 0 0 1 .36 1.9h.06a8.22 8.22 0 0 1 .42-1.9l2-6.14h3.19l-4.6 12.31a5.31 5.31 0 0 1-1.81 2.56 4.54 4.54 0 0 1-2.75.85 6.91 6.91 0 0 1-1.51-.16v-2.37a4.82 4.82 0 0 0 1.17.13 2.11 2.11 0 0 0 1.38-.48 3.2 3.2 0 0 0 .92-1.46l.18-.54Z" transform="translate(0 -.22)"/></svg>