<svg width="301" height="92" viewBox="0 0 301 92" fill="none" xmlns="http://www.w3.org/2000/svg">
<g clip-path="url(#clip0_2_3458)">
<path d="M46.5005 0.501172C37.5174 0.436726 28.7174 3.03219 21.2167 7.95837C13.7159 12.8846 7.85243 19.9195 4.36982 28.171C0.887208 36.4225 -0.0576013 45.5187 1.65522 54.306C3.36805 63.0933 7.66133 71.1757 13.9906 77.5282C20.3198 83.8807 28.3998 88.2171 37.2058 89.9873C46.0118 91.7575 55.147 90.8817 63.4528 87.4712C71.7586 84.0607 78.8608 78.2689 83.8586 70.8306C88.8564 63.3923 91.5246 54.6425 91.5248 45.691C91.5595 33.7517 86.8375 22.2866 78.3956 13.8137C69.9538 5.34087 58.4824 0.552845 46.5005 0.501172ZM67.1353 65.5693C66.9474 65.8864 66.6978 66.1628 66.4012 66.3825C66.1046 66.6022 65.767 66.7606 65.4081 66.8484C65.0492 66.9363 64.6764 66.9519 64.3114 66.8943C63.9464 66.8366 63.5966 66.707 63.2826 66.5128C52.704 60.006 39.3829 58.5745 23.7109 62.1533C22.9979 62.2898 22.2595 62.1458 21.6507 61.7515C21.042 61.3572 20.6101 60.7433 20.4459 60.0385C20.3171 59.3289 20.4651 58.5971 20.8595 57.9924C21.2539 57.3878 21.865 56.956 22.5681 56.7851C39.7094 52.881 54.4345 54.5728 66.3191 61.8279C66.9267 62.2386 67.351 62.8679 67.5032 63.5836C67.6554 64.2993 67.5235 65.046 67.1353 65.6669V65.5693ZM72.6531 53.2715C72.4152 53.6668 72.1008 54.0112 71.7282 54.2845C71.3557 54.5578 70.9323 54.7546 70.4828 54.8636C70.0332 54.9726 69.5664 54.9915 69.1095 54.9192C68.6525 54.847 68.2146 54.685 67.8209 54.4427C61.0507 50.6711 53.5982 48.2722 45.8931 47.3844C38.188 46.4965 30.3827 47.1373 22.9273 49.2698C22.065 49.4222 21.1767 49.2495 20.4352 48.7852C19.6937 48.3209 19.1521 47.5984 18.9159 46.7581C18.6796 45.9179 18.7655 45.0201 19.157 44.2395C19.5484 43.4589 20.2174 42.8514 21.0336 42.5352C29.4259 40.1294 38.2171 39.4254 46.8873 40.4648C55.5574 41.5042 63.9303 44.2659 71.5104 48.5865C72.2842 49.0821 72.8354 49.8568 73.0484 50.7485C73.2615 51.6401 73.1198 52.5792 72.6531 53.369V53.2715ZM73.2735 40.5506C58.7443 31.9291 34.7792 31.1157 21.0336 35.3452C19.9555 35.6687 18.7926 35.5523 17.8006 35.0215C16.8087 34.4907 16.069 33.589 15.7443 32.5147C15.4196 31.4405 15.5364 30.2817 16.0691 29.2932C16.6018 28.3048 17.5068 27.5678 18.5848 27.2442C34.4854 22.3966 61.0298 23.3401 77.6486 33.2955C78.6184 33.865 79.3215 34.7951 79.6032 35.8811C79.8848 36.9671 79.722 38.1202 79.1505 39.0866C78.8713 39.5779 78.4949 40.0076 78.0439 40.3494C77.5929 40.6912 77.0769 40.9381 76.5272 41.0751C75.9775 41.212 75.4056 41.2361 74.8463 41.146C74.2869 41.0558 73.7518 40.8533 73.2735 40.5506ZM297.024 44.9753C296.036 45.0077 295.061 44.7454 294.223 44.2221C293.386 43.6988 292.725 42.9382 292.324 42.038C291.923 41.1377 291.801 40.1387 291.974 39.1689C292.147 38.1992 292.606 37.3029 293.293 36.5949C293.98 35.887 294.864 35.3996 295.831 35.1952C296.797 34.9908 297.803 35.0788 298.72 35.4478C299.636 35.8169 300.421 36.4502 300.974 37.2665C301.527 38.0829 301.823 39.0452 301.823 40.0301C301.827 40.6779 301.703 41.3203 301.457 41.9201C301.211 42.5198 300.849 43.0653 300.391 43.5249C299.932 43.9845 299.388 44.3493 298.787 44.5982C298.187 44.8471 297.543 44.9753 296.893 44.9753H297.024ZM297.024 35.6054C296.134 35.586 295.258 35.8317 294.509 36.311C293.76 36.7902 293.171 37.4813 292.819 38.2958C292.466 39.1102 292.365 40.011 292.529 40.8829C292.693 41.7547 293.115 42.558 293.74 43.1898C294.364 43.8217 295.164 44.2534 296.036 44.4297C296.909 44.6061 297.814 44.519 298.637 44.1797C299.459 43.8404 300.161 43.2643 300.654 42.525C301.146 41.7858 301.405 40.9171 301.399 40.0301C301.412 39.4411 301.306 38.8555 301.085 38.3087C300.865 37.7619 300.536 37.2653 300.118 36.8487C299.7 36.4321 299.202 36.1043 298.653 35.885C298.104 35.6657 297.517 35.5596 296.926 35.5729L297.024 35.6054ZM298.101 40.5181L299.505 42.4701H298.232L296.991 40.6808H295.914V42.4701H294.934V37.2972H297.219C298.428 37.2972 299.211 37.9154 299.211 38.9565C299.227 39.3169 299.115 39.6714 298.893 39.9572C298.672 40.243 298.357 40.4417 298.003 40.5181H298.101ZM297.285 38.2082H296.011V39.8349H297.285C297.905 39.8349 298.297 39.5095 298.297 39.0215C298.297 38.5335 297.807 38.2082 297.187 38.2082H297.285Z" fill="white"/>
<path d="M101.358 21.2728H115.837C120.794 20.9242 125.755 21.8883 130.217 24.0672C131.701 25.017 132.899 26.3489 133.686 27.9218C134.472 29.4948 134.817 31.2504 134.684 33.0027C134.793 35.4286 134.107 37.8239 132.728 39.8263C132.127 40.6936 131.353 41.4293 130.456 41.9881C129.559 42.5469 128.557 42.9169 127.511 43.0756V43.4005C130.072 43.7596 132.402 45.0714 134.032 47.0722C135.432 49.1985 136.117 51.7133 135.989 54.2531C136.057 56.1254 135.675 57.9868 134.875 59.6823C134.076 61.3778 132.881 62.8585 131.391 64.001C127.747 66.552 123.349 67.8106 118.902 67.5753H101.358V21.2728ZM111.141 39.6313H116.88C118.895 39.7998 120.914 39.3701 122.684 38.3966C123.315 37.927 123.814 37.304 124.134 36.5871C124.454 35.8702 124.583 35.0836 124.511 34.3024C124.567 33.5507 124.415 32.7979 124.069 32.1271C123.724 31.4563 123.2 30.8935 122.554 30.5008C120.635 29.6278 118.528 29.248 116.424 29.396H111.369L111.141 39.6313ZM111.141 47.4621V59.5495H117.663C119.782 59.7189 121.897 59.1692 123.663 57.9898C124.34 57.4005 124.869 56.6617 125.209 55.8325C125.548 55.0032 125.689 54.1063 125.619 53.2134C125.619 49.3792 122.848 47.4621 117.337 47.4621H111.141Z" fill="white"/>
<path d="M160.511 68.387C158.09 68.4981 155.671 68.1303 153.393 67.305C151.115 66.4796 149.023 65.2129 147.239 63.578C145.56 61.7936 144.265 59.6851 143.435 57.3826C142.605 55.0801 142.257 52.6325 142.413 50.1909C142.081 45.1885 143.679 40.2486 146.881 36.3814C148.466 34.7293 150.392 33.4384 152.525 32.5971C154.658 31.7559 156.949 31.3841 159.239 31.5075C161.372 31.4167 163.5 31.7588 165.496 32.5129C167.491 33.2669 169.312 34.4173 170.848 35.894C172.299 37.4956 173.416 39.3692 174.133 41.4055C174.849 43.4418 175.152 45.5999 175.022 47.754V52.4329H152.196C152.154 54.8359 153.041 57.1628 154.674 58.9315C155.536 59.7556 156.562 60.3898 157.685 60.7928C158.809 61.1959 160.005 61.3588 161.196 61.271C163.238 61.2836 165.274 61.0545 167.261 60.5887C169.329 60.0924 171.339 59.3847 173.261 58.4766V65.95C171.537 66.8137 169.706 67.4474 167.815 67.8346C165.408 68.2823 162.959 68.4675 160.511 68.387ZM159.142 38.4935C158.243 38.4477 157.345 38.5986 156.512 38.9354C155.678 39.2722 154.928 39.7868 154.315 40.443C153.031 42.0143 152.318 43.9728 152.294 45.9993H165.924C166.026 43.9805 165.362 41.9973 164.065 40.443C163.436 39.7752 162.672 39.2476 161.823 38.8948C160.975 38.542 160.061 38.372 159.142 38.396V38.4935Z" fill="white"/>
<path d="M197.946 60.5896C200.022 60.5278 202.078 60.1553 204.044 59.4848V66.6658C201.227 67.8367 198.191 68.3907 195.141 68.2904C193.596 68.4273 192.039 68.2375 190.573 67.7336C189.106 67.2296 187.763 66.4229 186.631 65.366C184.703 62.8493 183.764 59.7182 183.989 56.5604V39.4691H179.326V35.375L184.674 32.1257L187.478 24.6523H193.707V32.1907H203.489V39.4691H193.707V56.5604C193.662 57.1217 193.741 57.6857 193.939 58.2133C194.136 58.7408 194.446 59.2192 194.848 59.6148C195.731 60.2966 196.83 60.6423 197.946 60.5896Z" fill="white"/>
<path d="M210.826 22.8963C210.826 19.647 212.587 18.1523 216.109 18.1523C219.631 18.1523 221.391 19.7445 221.391 22.8963C221.43 23.5394 221.334 24.1834 221.109 24.7876C220.885 25.3917 220.537 25.9427 220.087 26.4056C218.965 27.3021 217.544 27.7431 216.109 27.6403C212.457 27.7703 210.826 26.1456 210.826 22.8963ZM220.967 67.5417H211.185V32.1893H220.967V67.5417Z" fill="white"/>
<path d="M250.837 39.4678H242.424V67.6717H232.641V39.4678H227.358V34.7888L232.706 32.1893V29.5899C232.568 27.9853 232.764 26.3696 233.28 24.8435C233.796 23.3174 234.622 21.9135 235.706 20.7193C238.442 18.6358 241.863 17.6503 245.293 17.9574C248.335 17.9056 251.362 18.4009 254.228 19.4196L251.75 26.5356C250.003 25.9573 248.177 25.6504 246.337 25.6257C245.777 25.5728 245.212 25.6543 244.69 25.8635C244.168 26.0727 243.704 26.4034 243.337 26.828C242.671 27.7765 242.349 28.9223 242.424 30.0773V32.2868H250.837V39.4678Z" fill="white"/>
<path d="M251.294 32.1914H261.924L268.674 52.1421C269.28 54.1538 269.673 56.2228 269.848 58.3158H270.044C270.254 56.2111 270.713 54.1387 271.414 52.1421L277.935 32.1914H288.337L273.337 72.1903C272.255 75.4917 270.198 78.3909 267.435 80.5085C264.826 82.3739 261.678 83.3433 258.468 83.2704C256.812 83.2778 255.161 83.1035 253.544 82.7505V75.0496C254.794 75.3452 256.075 75.4871 257.359 75.472C258.998 75.5028 260.593 74.9497 261.859 73.9124C263.276 72.6347 264.314 70.9936 264.859 69.1684L265.446 67.4138L251.294 32.1914Z" fill="white"/>
</g>
<defs>
<clipPath id="clip0_2_3458">
<rect width="300" height="90.2655" fill="white" transform="translate(0.5 0.867188)"/>
</clipPath>
</defs>
</svg>
